<mxfile host="app.diagrams.net" modified="2024-03-08T07:16:28.164Z" agent="Mozilla/5.0 (Windows NT 10.0; Win64; x64) AppleWebKit/537.36 (KHTML, like Gecko) Chrome/122.0.0.0 Safari/537.36" etag="DTsO_5YAaIf40vz0exhj" version="24.0.2" type="github">
  <diagram name="第 1 页" id="3mh0vr8qd8ZHPuX3uXLf">
    <mxGraphModel dx="1050" dy="565" grid="1" gridSize="10" guides="1" tooltips="1" connect="1" arrows="1" fold="1" page="1" pageScale="1" pageWidth="827" pageHeight="1169" math="0" shadow="0">
      <root>
        <mxCell id="0" />
        <mxCell id="1" parent="0" />
        <mxCell id="lbR6kca6G6t0qnoAH2Vn-1" value="老师" style="rounded=1;whiteSpace=wrap;html=1;fillColor=#fff2cc;strokeColor=#d6b656;" parent="1" vertex="1">
          <mxGeometry x="30" y="120" width="100" height="50" as="geometry" />
        </mxCell>
        <mxCell id="lbR6kca6G6t0qnoAH2Vn-2" value="成绩分段查询界面" style="rounded=1;whiteSpace=wrap;html=1;fillColor=#fff2cc;strokeColor=#d6b656;" parent="1" vertex="1">
          <mxGeometry x="240" y="120" width="100" height="50" as="geometry" />
        </mxCell>
        <mxCell id="lbR6kca6G6t0qnoAH2Vn-3" value="成绩分段查询后台" style="rounded=1;whiteSpace=wrap;html=1;fillColor=#fff2cc;strokeColor=#d6b656;" parent="1" vertex="1">
          <mxGeometry x="440" y="120" width="100" height="50" as="geometry" />
        </mxCell>
        <mxCell id="lbR6kca6G6t0qnoAH2Vn-4" value="成绩数据库" style="rounded=1;whiteSpace=wrap;html=1;fillColor=#fff2cc;strokeColor=#d6b656;" parent="1" vertex="1">
          <mxGeometry x="640" y="120" width="100" height="50" as="geometry" />
        </mxCell>
        <mxCell id="lbR6kca6G6t0qnoAH2Vn-5" value="" style="endArrow=none;dashed=1;html=1;dashPattern=1 3;strokeWidth=2;rounded=0;" parent="1" edge="1">
          <mxGeometry width="50" height="50" relative="1" as="geometry">
            <mxPoint x="80" y="520" as="sourcePoint" />
            <mxPoint x="80" y="180" as="targetPoint" />
          </mxGeometry>
        </mxCell>
        <mxCell id="lbR6kca6G6t0qnoAH2Vn-6" value="" style="endArrow=none;dashed=1;html=1;dashPattern=1 3;strokeWidth=2;rounded=0;" parent="1" edge="1">
          <mxGeometry width="50" height="50" relative="1" as="geometry">
            <mxPoint x="280" y="510" as="sourcePoint" />
            <mxPoint x="280" y="170" as="targetPoint" />
          </mxGeometry>
        </mxCell>
        <mxCell id="lbR6kca6G6t0qnoAH2Vn-7" value="" style="endArrow=none;dashed=1;html=1;dashPattern=1 3;strokeWidth=2;rounded=0;" parent="1" source="lbR6kca6G6t0qnoAH2Vn-25" edge="1">
          <mxGeometry width="50" height="50" relative="1" as="geometry">
            <mxPoint x="480" y="520" as="sourcePoint" />
            <mxPoint x="480" y="180" as="targetPoint" />
          </mxGeometry>
        </mxCell>
        <mxCell id="lbR6kca6G6t0qnoAH2Vn-8" value="" style="endArrow=none;dashed=1;html=1;dashPattern=1 3;strokeWidth=2;rounded=0;" parent="1" edge="1">
          <mxGeometry width="50" height="50" relative="1" as="geometry">
            <mxPoint x="680" y="510" as="sourcePoint" />
            <mxPoint x="680" y="170" as="targetPoint" />
          </mxGeometry>
        </mxCell>
        <mxCell id="lbR6kca6G6t0qnoAH2Vn-9" value="" style="endArrow=classic;html=1;rounded=0;entryX=0;entryY=0.25;entryDx=0;entryDy=0;" parent="1" target="lbR6kca6G6t0qnoAH2Vn-21" edge="1">
          <mxGeometry width="50" height="50" relative="1" as="geometry">
            <mxPoint x="75" y="240" as="sourcePoint" />
            <mxPoint x="250" y="240" as="targetPoint" />
          </mxGeometry>
        </mxCell>
        <mxCell id="lbR6kca6G6t0qnoAH2Vn-10" value="1.老师查看成绩信息" style="text;html=1;align=center;verticalAlign=middle;resizable=0;points=[];autosize=1;strokeColor=none;fillColor=none;" parent="1" vertex="1">
          <mxGeometry x="95" y="218" width="130" height="30" as="geometry" />
        </mxCell>
        <mxCell id="lbR6kca6G6t0qnoAH2Vn-11" value="" style="endArrow=classic;html=1;rounded=0;" parent="1" edge="1">
          <mxGeometry width="50" height="50" relative="1" as="geometry">
            <mxPoint x="290" y="280" as="sourcePoint" />
            <mxPoint x="460" y="280" as="targetPoint" />
          </mxGeometry>
        </mxCell>
        <mxCell id="lbR6kca6G6t0qnoAH2Vn-12" value="2.前台访问后台API" style="text;html=1;align=center;verticalAlign=middle;resizable=0;points=[];autosize=1;strokeColor=none;fillColor=none;" parent="1" vertex="1">
          <mxGeometry x="315" y="245" width="120" height="30" as="geometry" />
        </mxCell>
        <mxCell id="lbR6kca6G6t0qnoAH2Vn-13" value="" style="endArrow=classic;html=1;rounded=0;" parent="1" edge="1">
          <mxGeometry width="50" height="50" relative="1" as="geometry">
            <mxPoint x="480" y="310" as="sourcePoint" />
            <mxPoint x="660" y="310" as="targetPoint" />
          </mxGeometry>
        </mxCell>
        <mxCell id="lbR6kca6G6t0qnoAH2Vn-14" value="3.后台访问成绩数据" style="text;html=1;align=center;verticalAlign=middle;resizable=0;points=[];autosize=1;strokeColor=none;fillColor=none;" parent="1" vertex="1">
          <mxGeometry x="520" y="288" width="130" height="30" as="geometry" />
        </mxCell>
        <mxCell id="lbR6kca6G6t0qnoAH2Vn-15" value="" style="endArrow=classic;html=1;rounded=0;" parent="1" edge="1">
          <mxGeometry width="50" height="50" relative="1" as="geometry">
            <mxPoint x="680" y="400" as="sourcePoint" />
            <mxPoint x="500" y="400" as="targetPoint" />
          </mxGeometry>
        </mxCell>
        <mxCell id="lbR6kca6G6t0qnoAH2Vn-16" value="4.后台返回查询成绩数据" style="text;html=1;align=center;verticalAlign=middle;resizable=0;points=[];autosize=1;strokeColor=none;fillColor=none;" parent="1" vertex="1">
          <mxGeometry x="510" y="364" width="150" height="30" as="geometry" />
        </mxCell>
        <mxCell id="lbR6kca6G6t0qnoAH2Vn-19" value="" style="endArrow=classic;html=1;rounded=0;entryX=1;entryY=0.488;entryDx=0;entryDy=0;entryPerimeter=0;" parent="1" target="lbR6kca6G6t0qnoAH2Vn-35" edge="1">
          <mxGeometry width="50" height="50" relative="1" as="geometry">
            <mxPoint x="470" y="430" as="sourcePoint" />
            <mxPoint x="300" y="430" as="targetPoint" />
          </mxGeometry>
        </mxCell>
        <mxCell id="lbR6kca6G6t0qnoAH2Vn-20" value="5.返回成绩数据到前台" style="text;html=1;align=center;verticalAlign=middle;resizable=0;points=[];autosize=1;strokeColor=none;fillColor=none;" parent="1" vertex="1">
          <mxGeometry x="305" y="394" width="140" height="30" as="geometry" />
        </mxCell>
        <mxCell id="lbR6kca6G6t0qnoAH2Vn-21" value="" style="rounded=1;whiteSpace=wrap;html=1;" parent="1" vertex="1">
          <mxGeometry x="260" y="220" width="30" height="80" as="geometry" />
        </mxCell>
        <mxCell id="lbR6kca6G6t0qnoAH2Vn-26" value="" style="endArrow=none;dashed=1;html=1;dashPattern=1 3;strokeWidth=2;rounded=0;" parent="1" source="lbR6kca6G6t0qnoAH2Vn-32" target="lbR6kca6G6t0qnoAH2Vn-25" edge="1">
          <mxGeometry width="50" height="50" relative="1" as="geometry">
            <mxPoint x="480" y="520" as="sourcePoint" />
            <mxPoint x="480" y="180" as="targetPoint" />
          </mxGeometry>
        </mxCell>
        <mxCell id="lbR6kca6G6t0qnoAH2Vn-25" value="" style="rounded=1;whiteSpace=wrap;html=1;" parent="1" vertex="1">
          <mxGeometry x="465" y="258" width="30" height="80" as="geometry" />
        </mxCell>
        <mxCell id="lbR6kca6G6t0qnoAH2Vn-29" value="" style="rounded=1;whiteSpace=wrap;html=1;" parent="1" vertex="1">
          <mxGeometry x="670" y="270" width="30" height="200" as="geometry" />
        </mxCell>
        <mxCell id="lbR6kca6G6t0qnoAH2Vn-33" value="" style="endArrow=none;dashed=1;html=1;dashPattern=1 3;strokeWidth=2;rounded=0;" parent="1" target="lbR6kca6G6t0qnoAH2Vn-32" edge="1">
          <mxGeometry width="50" height="50" relative="1" as="geometry">
            <mxPoint x="480" y="520" as="sourcePoint" />
            <mxPoint x="480" y="338" as="targetPoint" />
          </mxGeometry>
        </mxCell>
        <mxCell id="lbR6kca6G6t0qnoAH2Vn-32" value="" style="rounded=1;whiteSpace=wrap;html=1;" parent="1" vertex="1">
          <mxGeometry x="465" y="368" width="30" height="102" as="geometry" />
        </mxCell>
        <mxCell id="lbR6kca6G6t0qnoAH2Vn-35" value="" style="rounded=1;whiteSpace=wrap;html=1;" parent="1" vertex="1">
          <mxGeometry x="260" y="390" width="30" height="82" as="geometry" />
        </mxCell>
        <mxCell id="lbR6kca6G6t0qnoAH2Vn-36" value="" style="rounded=1;whiteSpace=wrap;html=1;" parent="1" vertex="1">
          <mxGeometry x="65" y="218" width="30" height="262" as="geometry" />
        </mxCell>
        <mxCell id="lbR6kca6G6t0qnoAH2Vn-37" value="" style="endArrow=classic;html=1;rounded=0;entryX=1;entryY=0.488;entryDx=0;entryDy=0;entryPerimeter=0;" parent="1" edge="1">
          <mxGeometry width="50" height="50" relative="1" as="geometry">
            <mxPoint x="250" y="431" as="sourcePoint" />
            <mxPoint x="95" y="430.5" as="targetPoint" />
          </mxGeometry>
        </mxCell>
        <mxCell id="lbR6kca6G6t0qnoAH2Vn-38" value="6.老师查看成绩分段信息" style="text;html=1;align=center;verticalAlign=middle;resizable=0;points=[];autosize=1;strokeColor=none;fillColor=none;" parent="1" vertex="1">
          <mxGeometry x="95" y="404" width="150" height="30" as="geometry" />
        </mxCell>
      </root>
    </mxGraphModel>
  </diagram>
</mxfile>
